<svg xmlns="http://www.w3.org/2000/svg" viewBox="0 0 256 256" aria-label="FavCRM">
  <rect width="256" height="256" rx="48" fill="#0a0a0b"/>
  <svg x="32" y="32" width="192" height="192" viewBox="-20 -20 240.05 240.05">
    <g transform="translate(0, 45.625)">
      <circle cx="191.56" cy="99.99" r="8.33" fill="#fafaf9"/>
      <path d="m116.6,70.84c0-20.7-16.78-37.48-37.48-37.48s-37.48,16.78-37.48,37.48,16.78,37.48,37.48,37.48c7.77,0,14.99-2.37,20.98-6.42.74,3.84,4.12,6.74,8.17,6.74,4.6,0,8.33-3.73,8.33-8.33,0-.12-.01-.25-.02-.37h.02v-28.91h0c0-.07,0-.13,0-.2Zm-16.64,29.11h0c0,.06,0,.12-.01.18,0-.06,0-.12.01-.18Zm-20.84-8.28c-11.5,0-20.82-9.32-20.82-20.82s9.32-20.82,20.82-20.82,20.82,9.32,20.82,20.82-9.32,20.82-20.82,20.82Z" fill="#fafaf9"/>
      <path d="m33.31,16.66h0c4.6,0,8.33-3.73,8.33-8.33S37.91,0,33.31,0h0C15.02,0,.18,14.74,0,32.99h0v.32h0v18.93c3.34-7.68,9.26-13.98,16.66-17.82v-1.11c0-9.2,7.46-16.66,16.66-16.66Z" fill="#fafaf9"/>
      <path d="m162.41,108.8c-3.22,0-6.17-1.82-7.6-4.71l-29.15-58.55c-2.09-4.2-.38-9.3,3.82-11.39,4.2-2.09,9.3-.38,11.39,3.82l21.55,43.28,21.55-43.28c2.09-4.2,7.19-5.91,11.39-3.82,4.2,2.09,5.91,7.19,3.82,11.39l-29.15,58.55c-1.44,2.88-4.38,4.71-7.6,4.71Z" fill="#fafaf9"/>
      <path d="m33.31,33.36h0C14.92,33.36.01,48.26,0,66.65h0v.02h0v33.64h.02c.17,4.45,3.82,8.01,8.31,8.01s8.14-3.56,8.31-8.01h.02v-33.64c0-9.2,7.46-16.66,16.66-16.66h0c4.6,0,8.33-3.73,8.33-8.33s-3.73-8.33-8.33-8.33Z" fill="#1b4dd8"/>
    </g>
  </svg>
</svg>
